# Blender 4.2.3 LTS
# www.blender.org
mtllib íŒ”ê°ì„¬.mtl
o Cube
v -0.074600 0.076658 -0.943734
v 0.074600 0.076658 -0.943734
v -0.000000 0.000000 -0.913235
v -0.614571 0.076658 -0.720071
v -0.645755 0.000000 -0.645755
v -0.720071 0.076658 -0.614571
v -0.943734 0.076658 -0.074600
v -0.913235 0.000000 0.000000
v -0.943734 0.076658 0.074600
v -0.720071 0.076658 0.614571
v -0.645755 0.000000 0.645755
v -0.614571 0.076658 0.720071
v -0.074600 0.076658 0.943734
v 0.000000 0.000000 0.913235
v 0.074600 0.076658 0.943734
v 0.614571 0.076658 0.720071
v 0.645755 0.000000 0.645755
v 0.720071 0.076658 0.614571
v 0.943734 0.076658 0.074600
v 0.913235 0.000000 -0.000000
v 0.943734 0.076658 -0.074600
v 0.720071 0.076658 -0.614571
v 0.645755 0.000000 -0.645755
v 0.614571 0.076658 -0.720071
v -0.075588 0.576659 -0.758170
v 0.075588 0.576659 -0.758170
v 0.074600 0.430262 -0.826728
v -0.074600 0.430262 -0.826728
v -0.482659 0.576659 -0.589556
v -0.531835 0.430262 -0.637335
v -0.637335 0.430262 -0.531835
v -0.589556 0.576659 -0.482659
v -0.758170 0.576659 -0.075588
v -0.826728 0.430262 -0.074600
v -0.826728 0.430262 0.074600
v -0.758170 0.576659 0.075588
v -0.589556 0.576659 0.482659
v -0.637335 0.430262 0.531835
v -0.531835 0.430262 0.637335
v -0.482659 0.576659 0.589556
v -0.075588 0.576659 0.758170
v -0.074600 0.430262 0.826728
v 0.074600 0.430262 0.826728
v 0.075588 0.576659 0.758170
v 0.482659 0.576659 0.589556
v 0.531835 0.430262 0.637335
v 0.637335 0.430262 0.531835
v 0.589556 0.576659 0.482659
v 0.758170 0.576659 0.075588
v 0.826728 0.430262 0.074600
v 0.826728 0.430262 -0.074600
v 0.758170 0.576659 -0.075588
v 0.589556 0.576659 -0.482659
v 0.637335 0.430262 -0.531835
v 0.531835 0.430262 -0.637335
v 0.482659 0.576659 -0.589556
v -0.075588 1.007333 -0.493966
v -0.000000 1.077071 -0.395728
v 0.075588 1.007333 -0.493966
v -0.295838 1.007333 -0.402735
v -0.402735 1.007333 -0.295838
v -0.279822 1.077071 -0.279822
v -0.493966 1.007333 -0.075588
v -0.493966 1.007333 0.075588
v -0.395728 1.077071 0.000000
v -0.402735 1.007333 0.295838
v -0.295838 1.007333 0.402735
v -0.279822 1.077071 0.279822
v -0.075588 1.007333 0.493966
v 0.075588 1.007333 0.493966
v -0.000000 1.077071 0.395728
v 0.295838 1.007333 0.402735
v 0.402735 1.007333 0.295838
v 0.279822 1.077071 0.279822
v 0.493966 1.007333 0.075588
v 0.493966 1.007333 -0.075588
v 0.395728 1.077071 0.000000
v 0.402735 1.007333 -0.295838
v 0.295838 1.007333 -0.402735
v 0.279822 1.077071 -0.279822
vn 0.3660 0.2924 -0.8835
vn -0.0000 1.0000 -0.0000
vn -0.8835 0.2924 -0.3660
vn 0.8835 0.2924 -0.3660
vn 0.3660 0.2924 0.8835
vn -0.8835 0.2924 0.3660
vn -0.3329 0.4931 -0.8038
vn 0.8835 0.2924 0.3660
vn -0.3660 0.2924 0.8835
vn -0.0000 -1.0000 -0.0000
vn 0.8038 0.4931 0.3329
vn -0.3329 0.4931 0.8038
vn 0.3329 0.4931 -0.8038
vn -0.8038 0.4931 -0.3329
vn 0.8038 0.4931 -0.3329
vn 0.3329 0.4931 0.8038
vn -0.8038 0.4931 0.3329
vn -0.0000 -0.3697 -0.9292
vn -0.6570 -0.3697 -0.6570
vn -0.9292 -0.3697 -0.0000
vn -0.6570 -0.3697 0.6570
vn -0.0000 -0.3697 0.9292
vn 0.6570 -0.3697 0.6570
vn 0.9292 -0.3697 -0.0000
vn 0.6570 -0.3697 -0.6570
vn -0.0000 0.4241 -0.9056
vn -0.6404 0.4241 -0.6404
vn -0.9056 0.4241 -0.0000
vn -0.6404 0.4241 0.6404
vn -0.0000 0.4241 0.9056
vn 0.6404 0.4241 0.6404
vn 0.9056 0.4241 -0.0000
vn 0.6404 0.4241 -0.6404
vn -0.0000 0.8154 -0.5789
vn -0.4093 0.8154 -0.4093
vn -0.5789 0.8154 -0.0000
vn -0.4093 0.8154 0.4093
vn -0.0000 0.8154 0.5789
vn 0.4093 0.8154 0.4093
vn 0.5789 0.8154 -0.0000
vn 0.4093 0.8154 -0.4093
vn -0.3076 -0.5948 -0.7427
vn -0.7427 -0.5948 -0.3076
vn -0.7427 -0.5948 0.3076
vn -0.3076 -0.5948 0.7427
vn 0.3076 -0.5948 0.7427
vn 0.7427 -0.5948 0.3076
vn 0.7427 -0.5948 -0.3076
vn 0.3076 -0.5948 -0.7427
vn -0.3516 0.3951 -0.8487
vn -0.8487 0.3951 -0.3516
vn -0.8487 0.3951 0.3516
vn -0.3516 0.3951 0.8487
vn 0.3516 0.3951 0.8487
vn 0.8487 0.3951 0.3516
vn 0.8487 0.3951 -0.3516
vn 0.3516 0.3951 -0.8487
vn -0.0000 0.3141 -0.9494
vn 0.6713 0.3141 -0.6713
vn 0.9494 0.3141 -0.0000
vn 0.6713 0.3141 0.6713
vn -0.0000 0.3141 0.9494
vn -0.6713 0.3141 0.6713
vn -0.9494 0.3141 -0.0000
vn -0.6713 0.3141 -0.6713
vn -0.1927 0.8640 -0.4651
vn -0.4651 0.8640 -0.1927
vn -0.4651 0.8640 0.1927
vn -0.1927 0.8640 0.4651
vn 0.1927 0.8640 0.4651
vn 0.4651 0.8640 0.1927
vn 0.4651 0.8640 -0.1927
vn 0.1927 0.8640 -0.4651
vn 0.6027 0.5229 -0.6027
vn 0.8524 0.5229 -0.0000
vn 0.6027 0.5229 0.6027
vn -0.0000 0.5229 0.8524
vn -0.6027 0.5229 0.6027
vn -0.8524 0.5229 -0.0000
vn -0.6027 0.5229 -0.6027
vn -0.0000 0.5229 -0.8524
vn -0.3660 0.2924 -0.8835
vt 0.000000 0.000000
s 0
usemtl Material
f 24/1/1 2/1/1 27/1/1 55/1/1
f 62/1/2 65/1/2 68/1/2 71/1/2 74/1/2 77/1/2 80/1/2 58/1/2
f 6/1/3 7/1/3 34/1/3 31/1/3
f 21/1/4 22/1/4 54/1/4 51/1/4
f 15/1/5 16/1/5 46/1/5 43/1/5
f 9/1/6 10/1/6 38/1/6 35/1/6
f 25/1/7 29/1/7 60/1/7 57/1/7
f 18/1/8 19/1/8 50/1/8 47/1/8
f 12/1/9 13/1/9 42/1/9 39/1/9
f 5/1/10 3/1/10 23/1/10 20/1/10 17/1/10 14/1/10 11/1/10 8/1/10
f 48/1/11 49/1/11 75/1/11 73/1/11
f 40/1/12 41/1/12 69/1/12 67/1/12
f 56/1/13 26/1/13 59/1/13 79/1/13
f 32/1/14 33/1/14 63/1/14 61/1/14
f 52/1/15 53/1/15 78/1/15 76/1/15
f 44/1/16 45/1/16 72/1/16 70/1/16
f 36/1/17 37/1/17 66/1/17 64/1/17
f 1/1/18 2/1/18 3/1/18
f 4/1/19 5/1/19 6/1/19
f 7/1/20 8/1/20 9/1/20
f 10/1/21 11/1/21 12/1/21
f 13/1/22 14/1/22 15/1/22
f 16/1/23 17/1/23 18/1/23
f 19/1/24 20/1/24 21/1/24
f 22/1/25 23/1/25 24/1/25
f 25/1/26 26/1/26 27/1/26 28/1/26
f 29/1/27 30/1/27 31/1/27 32/1/27
f 33/1/28 34/1/28 35/1/28 36/1/28
f 37/1/29 38/1/29 39/1/29 40/1/29
f 41/1/30 42/1/30 43/1/30 44/1/30
f 45/1/31 46/1/31 47/1/31 48/1/31
f 49/1/32 50/1/32 51/1/32 52/1/32
f 53/1/33 54/1/33 55/1/33 56/1/33
f 57/1/34 58/1/34 59/1/34
f 60/1/35 61/1/35 62/1/35
f 63/1/36 64/1/36 65/1/36
f 66/1/37 67/1/37 68/1/37
f 69/1/38 70/1/38 71/1/38
f 72/1/39 73/1/39 74/1/39
f 75/1/40 76/1/40 77/1/40
f 78/1/41 79/1/41 80/1/41
f 4/1/42 1/1/42 3/1/42 5/1/42
f 7/1/43 6/1/43 5/1/43 8/1/43
f 10/1/44 9/1/44 8/1/44 11/1/44
f 13/1/45 12/1/45 11/1/45 14/1/45
f 16/1/46 15/1/46 14/1/46 17/1/46
f 19/1/47 18/1/47 17/1/47 20/1/47
f 22/1/48 21/1/48 20/1/48 23/1/48
f 2/1/49 24/1/49 23/1/49 3/1/49
f 29/1/50 25/1/50 28/1/50 30/1/50
f 33/1/51 32/1/51 31/1/51 34/1/51
f 37/1/52 36/1/52 35/1/52 38/1/52
f 41/1/53 40/1/53 39/1/53 42/1/53
f 45/1/54 44/1/54 43/1/54 46/1/54
f 49/1/55 48/1/55 47/1/55 50/1/55
f 53/1/56 52/1/56 51/1/56 54/1/56
f 26/1/57 56/1/57 55/1/57 27/1/57
f 1/1/58 28/1/58 27/1/58 2/1/58
f 54/1/59 22/1/59 24/1/59 55/1/59
f 21/1/60 51/1/60 50/1/60 19/1/60
f 46/1/61 16/1/61 18/1/61 47/1/61
f 15/1/62 43/1/62 42/1/62 13/1/62
f 38/1/63 10/1/63 12/1/63 39/1/63
f 9/1/64 35/1/64 34/1/64 7/1/64
f 30/1/65 4/1/65 6/1/65 31/1/65
f 62/1/66 58/1/66 57/1/66 60/1/66
f 65/1/67 62/1/67 61/1/67 63/1/67
f 68/1/68 65/1/68 64/1/68 66/1/68
f 71/1/69 68/1/69 67/1/69 69/1/69
f 74/1/70 71/1/70 70/1/70 72/1/70
f 77/1/71 74/1/71 73/1/71 75/1/71
f 80/1/72 77/1/72 76/1/72 78/1/72
f 58/1/73 80/1/73 79/1/73 59/1/73
f 56/1/74 79/1/74 78/1/74 53/1/74
f 75/1/75 49/1/75 52/1/75 76/1/75
f 48/1/76 73/1/76 72/1/76 45/1/76
f 69/1/77 41/1/77 44/1/77 70/1/77
f 40/1/78 67/1/78 66/1/78 37/1/78
f 63/1/79 33/1/79 36/1/79 64/1/79
f 32/1/80 61/1/80 60/1/80 29/1/80
f 59/1/81 26/1/81 25/1/81 57/1/81
f 1/1/82 4/1/82 30/1/82 28/1/82
