# Blender 4.2.3 LTS
# www.blender.org
mtllib island3.mtl
o Cylinder
o Cylinder.001
o Circle
v -0.689274 -0.091893 1.222073
v 0.522015 -0.091893 1.222073
v 0.716788 -0.091893 -1.221154
v 1.246894 -0.091893 0.746677
v 1.092349 -0.091893 -0.555498
v -0.197545 -0.091893 -1.137186
v -1.110621 -0.091893 -0.816015
v -0.996079 -0.091893 -0.212130
v -0.741390 -0.091893 0.162283
v -0.983909 -0.091893 0.568154
v -0.448624 1.403885 -0.275319
v -0.410172 1.403885 -0.072590
v -0.142098 1.403885 -0.383138
v 0.164850 1.403885 -0.411327
v 0.290928 1.403885 -0.187861
v 0.342811 1.403885 0.249288
v 0.099463 1.403885 0.408882
v -0.307175 1.403885 0.408882
v -0.324670 1.403885 0.053103
v -0.406086 1.403885 0.189357
v 0.530662 1.130428 -0.297835
v 0.809454 0.665783 -0.425726
v 0.613378 1.130303 0.398143
v 0.927746 0.665818 0.571095
v 0.225480 1.131259 0.651397
v 0.372922 0.665455 0.935147
v -0.420202 1.133471 0.649429
v -0.554592 0.664684 0.935439
v 0.329306 1.131501 -0.652624
v 0.522057 0.665401 -0.935436
v -0.158497 1.133506 -0.606163
v -0.177999 0.664746 -0.871378
v -0.642786 1.135766 -0.433903
v -0.877488 0.664012 -0.625600
v -0.789913 0.663387 -0.163029
v -0.580615 1.137952 -0.113183
v -0.594787 0.663231 0.123873
v -0.445628 1.138541 0.084794
v -0.780482 0.663780 0.434795
v -0.575215 1.136310 0.300231
vn -0.2593 0.6239 -0.7373
vn -0.0000 -1.0000 -0.0000
vn -0.8152 0.3134 -0.4871
vn -0.7557 0.4059 0.5140
vn -0.0000 0.6646 0.7472
vn -0.7306 0.5982 0.3292
vn -0.9518 0.2481 0.1805
vn 0.8060 0.3788 -0.4548
vn -0.0705 0.6373 -0.7674
vn -0.8420 0.5153 0.1597
vn 0.7315 0.6762 -0.0868
vn -0.0000 1.0000 -0.0000
vn -0.8124 0.1858 0.5526
vn -0.0000 0.3543 0.9351
vn 0.3883 0.7062 0.5921
vn -0.3142 0.3219 -0.8931
vn -0.8501 0.1392 -0.5079
vn -0.8689 0.3030 0.3915
vn -0.0863 0.3322 -0.9393
vn 0.5048 0.3910 0.7697
vn 0.9249 0.3641 -0.1098
vn -0.9079 0.3819 0.1728
vn -0.2915 0.4806 -0.8271
vn -0.0800 0.4930 -0.8663
vn 0.7273 0.5498 -0.4108
vn 0.8409 0.5320 -0.0998
vn 0.4527 0.5638 0.6908
vn -0.0004 0.5205 0.8538
vn -0.7906 0.2923 0.5380
vn -0.8369 0.2212 -0.5006
vn -0.8118 0.4559 0.3649
vn 0.6279 0.6930 -0.3543
vt 0.408798 0.965632
vt 0.035081 0.834179
vt 0.783030 1.000000
vt 0.936745 0.727551
vt 1.000000 0.194577
vt 0.703311 0.000000
vt 0.207536 0.000000
vt 0.086944 0.267646
vt 0.186206 0.433766
vt 0.081963 0.587011
vt 0.936745 0.727551
vt 0.408798 0.965632
vt 0.086944 0.267646
vt 0.783030 1.000000
vt 0.703311 0.000000
vt 0.936745 0.727551
s 0
f 31/1/1 33/2/1 11/2/1 13/1/1
f 3/3/2 5/4/2 4/5/2 2/6/2 1/7/2 10/8/2 9/9/2 8/10/2 7/2/2 6/1/2
f 38/9/3 40/8/3 20/8/3 19/9/3
f 36/10/4 38/9/4 19/9/4 12/10/4
f 27/7/5 25/6/5 17/6/5 18/7/5
f 40/8/6 27/7/6 18/7/6 20/8/6
f 7/2/7 8/10/7 35/10/7 34/2/7
f 5/4/8 3/3/8 30/3/8 22/11/8
f 29/3/9 31/1/9 13/1/9 14/3/9
f 33/2/10 36/10/10 12/10/10 11/2/10
f 23/5/11 21/4/11 15/4/11 16/5/11
f 14/3/12 13/1/12 11/2/12 12/10/12 19/9/12 20/8/12 18/7/12 17/6/12 16/5/12 15/4/12
f 8/10/13 9/9/13 37/9/13 35/10/13
f 1/7/14 2/6/14 26/6/14 28/7/14
f 25/6/15 23/5/15 16/5/15 17/6/15
f 6/1/16 7/2/16 34/2/16 32/12/16
f 9/9/17 10/8/17 39/8/17 37/9/17
f 10/8/18 1/7/18 28/7/18 39/13/18
f 3/3/19 6/1/19 32/1/19 30/14/19
f 2/6/20 4/5/20 24/5/20 26/15/20
f 4/5/21 5/4/21 22/16/21 24/5/21
f 34/2/22 35/10/22 36/10/22 33/2/22
f 32/12/23 34/2/23 33/2/23 31/1/23
f 30/14/24 32/1/24 31/1/24 29/3/24
f 22/11/25 30/3/25 29/3/25 21/4/25
f 24/5/26 22/16/26 21/4/26 23/5/26
f 26/15/27 24/5/27 23/5/27 25/6/27
f 28/7/28 26/6/28 25/6/28 27/7/28
f 35/10/29 37/9/29 38/9/29 36/10/29
f 37/9/30 39/8/30 40/8/30 38/9/30
f 39/13/31 28/7/31 27/7/31 40/8/31
f 21/4/32 29/3/32 14/3/32 15/4/32
